<svg width="262" height="64" viewBox="0 0 262 64" fill="none" xmlns="http://www.w3.org/2000/svg">
<g clip-path="url(#clip0_1_2)">
<path d="M177.961 32.8713C184.732 32.9812 191.511 32.9602 198.265 33.3555C199.179 33.409 200.654 35.5608 200.641 36.7268C200.625 38.1261 199.381 39.5707 198.5 40.8824C197.754 41.9926 196.391 42.8006 195.95 43.9842C192.817 52.3929 184.41 56.8775 176.437 57.0778C165.575 57.3507 156.377 54.6787 150.801 45.0001C146.281 37.1542 146.407 28.587 150.835 20.5768C154.867 13.2847 161.588 9.66302 169.749 9.17805C175.966 8.80865 182.239 9.41755 188.458 9.06976C194.246 8.74611 194.528 13.3018 195.703 16.7426C196.854 20.1114 195.819 23.8372 192.597 25.3697C189.672 26.7613 186.289 26.4212 183.682 23.2849C181.219 20.3208 178.811 17.2994 173.861 17.8242C169.454 18.2914 166.719 20.8251 166.197 24.2002C165.246 30.3483 165.401 36.762 169.618 42.1221C171.748 44.8286 174.21 46.9516 178.416 46.2565C176.848 47.3123 174.918 48.074 172.658 48.8078C166.876 45.6661 163.81 40.829 162.232 34.4377C162.167 31.8359 162 29.6598 162.177 27.5123C162.819 19.7498 167.062 16.0587 174.689 15.8463C179.141 15.7223 182.12 17.733 185.149 20.6406C186.461 21.8999 189.046 21.8323 191.053 22.3675C191.41 19.674 192.397 16.8485 191.872 14.34C191.588 12.9877 188.812 11.5365 186.989 11.2599C183.4 10.7153 179.692 10.9586 175.787 10.6735C174.35 10.6118 173.16 10.7525 171.643 10.9046C170.511 11.1824 169.706 11.449 168.523 11.756C166.001 12.6752 163.858 13.5539 161.367 14.5383C157.877 18.3336 154.734 22.0231 151.321 25.8361C150.949 26.9748 150.847 27.9901 150.728 29.4451C151.134 32.1064 151.556 34.3279 151.995 36.5236C152.012 36.4978 151.956 36.4707 151.829 36.9042C151.787 38.2332 151.872 39.1288 151.953 40.3694C152.659 41.8519 153.37 42.9894 154.283 44.3784C158.787 49.8658 164.122 53.2933 171.252 54.2942C173.351 54.3644 175.181 54.1911 177.397 54.0082C180.526 53.0055 183.267 52.0125 186.324 50.9689C187.109 50.2861 187.578 49.6537 188.213 48.7276C190.9 44.6221 193.42 40.8103 196.768 35.7471C191.112 35.3888 186.596 35.1027 181.817 34.602C180.357 33.8821 179.159 33.3767 177.961 32.8713Z" fill="#57AD6A"/>
<path d="M212.959 14.8438C214.428 13.5357 215.685 11.5905 217.399 11.0202C231.405 6.36172 249.28 8.35727 254.166 26.8241C258.464 43.0645 248.272 55.7366 232.167 56.8742C223.191 57.5082 214.894 56.3253 209.229 48.4379C207.096 45.4673 205.743 41.936 204.463 38.3095C206.592 40.2289 208.292 42.499 209.967 44.8338C209.942 44.8984 209.969 45.0343 210.081 45.2581C210.455 45.6834 210.717 45.8849 211.207 46.3369C214.211 48.34 216.808 50.5241 219.796 51.7673C230.577 56.2526 243.099 52.4034 249.551 42.6875C250.591 41.1213 250.614 38.8797 251.1 36.5093C250.78 33.0356 250.467 30.0028 250.095 26.6044C245.581 13.4528 234.248 8.20809 220.649 12.8533C217.825 13.5392 215.392 14.1915 212.959 14.8438Z" fill="#61B976"/>
<path d="M29.8581 54.6683C26.9125 54.6979 23.9668 54.7275 20.4341 54.3704C18.3127 53.6525 16.7075 53.4985 15.2709 52.9233C14.409 52.5782 13.0769 51.3613 13.2108 50.9021C14.2087 47.4794 15.5205 44.1483 16.8376 41.0795C16.9788 41.5732 17.0163 41.7757 17.0342 42.4077C16.801 45.2672 16.5874 47.6973 16.3343 50.5766C20.4812 50.5766 24.4567 50.5766 27.9806 50.5766C27.9806 46.1503 27.9806 42.0708 27.9894 37.6077C28.9852 34.5051 29.9723 31.7861 31.2328 29.058C31.9861 29.26 32.4661 29.4712 33.0766 30.0235C35.1134 31.2667 37.0197 32.1687 39.093 33.3919C42.903 39.6418 43.8467 45.4812 38.2687 51.2767C42.046 50.4309 45.4167 49.624 48.4879 48.1801C54.9535 45.1404 55.6512 40.7313 50.9169 35.3298C50.0898 34.3861 49.6264 33.1237 49.3423 32.0498C53.9533 34.3389 56.8724 37.4204 55.9733 42.6899C55.1309 47.6278 51.9306 50.8042 47.3362 51.8792C43.2245 52.8414 38.8447 52.6062 34.6103 53.122C32.9875 53.3197 31.44 54.1347 29.8581 54.6683ZM36.2232 47.0625C39.6079 44.3416 38.5962 40.8449 37.2197 37.8418C36.7382 36.7911 33.9882 36.7802 32.2741 36.2945C32.1361 39.3762 31.813 42.4704 32.0198 45.5288C32.06 46.1228 34.1645 46.5773 36.2232 47.0625Z" fill="#76CF8D"/>
<path d="M16.7339 40.7884C15.5205 44.1483 14.2087 47.4794 13.2107 50.9021C13.0768 51.3614 14.409 52.5782 15.2708 52.9233C16.7074 53.4985 18.3127 53.6525 19.9949 54.3255C17.6577 54.7508 15.1636 54.9907 12.6912 54.8498C11.5191 54.7831 9.59617 54.19 9.41581 53.4795C9.10821 52.2676 9.82199 50.7477 10.2564 49.4056C11.476 45.6376 13.3943 41.9731 13.8817 38.1215C14.5031 33.2118 13.9418 28.1583 13.9868 23.1676C14.0165 19.8715 14.4965 16.6028 10.5618 14.7565C9.67992 14.3427 9.01716 12.0141 9.357 10.9052C9.62597 10.0277 11.578 9.17301 12.7944 9.15606C23.2743 9.01006 33.7789 8.67372 44.2252 9.27716C47.3944 9.46023 52.0759 11.7334 53.0743 14.2402C54.3939 17.5535 52.9008 22.0578 52.319 26.0062C52.179 26.9564 50.8674 27.734 49.8441 28.8687C50.7767 29.6332 51.5693 30.3529 52.4309 30.9777C57.5643 34.7001 59.4274 39.7021 57.78 45.4233C56.3872 50.2607 50.1672 54.8674 44.7655 54.9363C40.1085 54.9957 35.4497 54.9185 30.3249 54.785C31.4399 54.1347 32.9875 53.3197 34.6103 53.1221C38.8447 52.6062 43.2245 52.8414 47.3362 51.8793C51.9305 50.8042 55.1309 47.6278 55.9733 42.6899C56.8723 37.4204 53.9532 34.3389 49.2219 31.842C48.5556 31.3336 48.3093 31.1328 48.0216 30.6083C47.9703 29.4638 47.9128 28.7013 47.9646 27.6245C48.8251 25.9749 49.5764 24.6398 50.6309 23.1545C54.1144 18.0498 51.9186 12.0496 45.5151 11.3351C35.3364 10.1995 25.0032 10.2734 14.7343 10.2463C12.1804 10.2395 10.4541 11.9742 14.1957 14.129C14.7988 14.2814 15.1478 14.3449 15.5543 14.7589C15.8242 16.0309 16.0365 16.9524 16.1698 18.3476C16.3004 25.5571 16.5098 32.2928 16.7263 39.3227C16.7335 40.0074 16.7337 40.3979 16.7339 40.7884Z" fill="#4AA45E"/>
<path d="M77.2498 55.747C73.7754 55.9412 70.3009 56.1353 66.5242 55.8883C65.4722 54.2808 64.7224 53.1145 64.2795 51.8124C65.4709 50.487 66.3553 49.2975 67.5773 47.9545C68.2779 45.1996 68.6407 42.5983 69.2566 39.7396C70.8576 36.9696 72.0437 34.3518 73.5919 31.9694C75.8143 28.5495 79.111 25.6998 78.1305 20.8816C77.9661 20.0735 79.3121 18.9581 80.1994 17.9903C80.4386 17.9959 80.9172 18.0009 80.8766 18.3541C80.8128 28.4931 80.7896 38.2789 80.4618 48.2148C79.1881 50.8257 78.219 53.2863 77.2498 55.747Z" fill="#8BE5A4"/>
<path d="M127.921 17.0855C124.278 16.8134 124.697 13.9358 125.285 11.9329C125.645 10.7036 127.713 9.31394 129.126 9.18029C133.076 8.80666 137.094 8.89663 141.066 9.13611C142.35 9.21355 144.379 10.0906 144.642 11.0099C145.092 12.5792 145 15.5891 144.119 16.0497C137.256 19.638 140.123 26.3516 139.259 31.505C138.175 37.9681 139.101 44.7519 138.891 51.3888C138.833 53.2088 137.882 56.4984 137.224 56.5282C135.012 56.6286 132.244 56.1813 130.59 54.8358C122.959 48.6272 115.633 42.0442 108.193 35.004C108.488 34.1918 108.786 33.9712 109.405 33.8848C112.418 35.7418 115.11 37.4645 117.87 39.1988C117.938 39.2105 117.798 39.2147 117.822 39.5215C118.533 40.566 119.221 41.3036 120.071 42.3399C122.789 44.4687 125.344 46.299 127.935 48.0695C127.97 48.0096 127.872 48.1081 127.915 48.4306C128.992 49.823 130.026 50.8928 131.212 52.2829C134.003 54.7375 136.087 55.067 136.854 50.5703C136.94 49.4706 136.974 48.7355 137.266 47.6935C137.426 43.9137 137.327 40.441 137.219 36.5414C137.164 34.4027 137.116 32.6909 137.106 30.6475C137.095 29.8751 137.046 29.4343 137.054 28.5722C137.118 26.4508 137.124 24.7506 137.352 22.7662C137.606 21.2758 137.637 20.0696 137.768 18.5639C138.25 17.5208 138.632 16.7771 139.347 15.9825C140.641 14.9177 141.604 13.904 142.566 12.8902C141.689 12.3665 140.813 11.8427 139.609 11.2591C138.841 11.1701 138.4 11.1411 137.717 10.8213C135.332 10.7254 133.189 10.9203 130.675 11.1285C128.902 11.5675 127.501 11.9933 125.603 12.57C127.011 14.296 127.841 15.313 128.483 16.5188C128.171 16.8335 128.046 16.9595 127.921 17.0855Z" fill="#459E58"/>
<path d="M80.7663 48.0647C80.7896 38.2789 80.8128 28.4931 81.0398 18.0546C82.225 16.214 83.2065 15.0261 85.3325 12.4528C81.5823 11.9114 79.269 11.5774 76.504 11.1897C72.7229 11.2159 69.3936 11.2958 65.7204 11.2968C61.3136 12.9566 61.221 13.278 64.3309 15.9895C65.2952 17.4264 65.979 18.6943 66.4959 20.1552C65.9416 20.895 65.5541 21.4417 65.1667 21.9884C64.0308 20.2757 63.1258 18.3351 61.7088 16.9C59.1363 14.2948 59.3406 10.4907 62.7028 10.2101C69.9764 9.60301 77.3467 9.87248 84.6474 10.2983C85.4032 10.3424 86.892 15.2605 86.4627 15.5463C80.6861 19.3914 83.1668 25.6573 82.3542 30.5532C81.2664 37.1066 80.8437 44.3495 86.2583 50.0976C87.0161 50.9021 87.0508 53.8631 86.5286 54.1392C84.4276 55.2497 81.9764 55.6978 79.9074 55.6921C80.7652 54.6461 81.3702 54.2988 82.3169 53.9017C85.2055 51.8429 84.0293 50.4107 81.794 48.8845C81.3635 48.4527 81.0649 48.2587 80.7663 48.0647Z" fill="#419954"/>
<path d="M105.987 34.9614C106.005 37.6815 105.747 40.4416 106.133 43.1084C106.415 45.0573 107.621 46.8575 108.275 48.7717C108.882 50.548 110.137 52.7304 109.572 54.1027C109.011 55.4651 106.612 56.613 104.887 56.8376C101.63 57.2617 98.235 57.2686 94.9824 56.8252C93.2873 56.5941 90.9295 55.3537 90.4123 53.9863C89.8842 52.5899 91.1084 50.4236 91.8237 48.7016C92.3051 47.5427 93.8806 46.5591 93.8628 45.5159C93.712 36.6449 93.3078 27.7783 93.1481 18.2946C93.4421 17.5516 93.5676 17.4243 93.958 17.5853C94.5037 18.4564 94.9751 19.02 95.0363 19.6251C95.6855 26.0368 96.2695 32.4552 96.6938 39.2428C96.5621 42.0012 96.608 44.3886 96.3632 46.918C95.7035 48.0315 95.3343 49.003 94.7232 50.1282C94.0058 50.5979 93.5304 50.9138 92.8306 51.2586C92.3135 51.4552 92.1745 51.7077 92.2357 52.2649C92.4322 52.7654 92.6605 52.9489 93.1559 53.3428C99.4979 57.1169 103.079 56.6824 106.045 52.8C105.252 49.2333 104.421 46.3235 104.003 43.3557C103.659 40.9058 103.803 38.3871 103.888 35.6328C104.298 35.0362 104.551 34.7058 105.106 34.5088C105.601 34.7487 105.794 34.8551 105.987 34.9614Z" fill="#459E58"/>
<path d="M212.618 14.9461C215.392 14.1915 217.825 13.5392 220.563 13.1984C217.624 17.0091 214.381 20.5082 210.932 24.3201C209.901 28.4346 209.074 32.2363 208.234 36.3935C208.741 38.5118 209.261 40.2746 209.79 42.383C209.863 43.4088 209.928 44.089 209.992 44.7692C208.292 42.499 206.592 40.2289 204.551 37.9341C203.55 29.1074 203.516 20.5259 212.618 14.9461Z" fill="#D0EBD6"/>
<path d="M89.4403 15.5875C87.1385 11.5347 88.3174 9.75824 93.1017 8.97601C102.586 7.42533 109.889 11.0212 116.319 17.6636C119.917 21.3804 124.036 24.5932 129.185 29.1529C128.803 24.3884 128.541 21.1053 128.099 17.4539C128.046 16.9595 128.171 16.8335 128.735 16.7926C131.994 20.6931 131.608 24.6843 129.426 28.8204C127.671 29.0146 126.316 29.1404 124.678 29.0735C120.912 25.9577 117.429 23.0344 113.81 19.8101C112.069 18.0313 110.465 16.5534 108.761 14.7717C107.776 13.9767 106.89 13.4856 105.824 12.7094C104.427 11.9658 103.21 11.5074 101.754 10.7671C99.6869 10.708 97.8594 10.9309 95.6711 11.1721C94.5919 11.2567 93.8736 11.3231 92.8085 11.3172C91.7066 12.4318 90.9515 13.6185 90.0019 14.9955C89.6849 15.3196 89.5626 15.4536 89.4403 15.5875Z" fill="#459E58"/>
<path d="M177.59 32.9438C179.159 33.3767 180.357 33.8821 181.505 34.6469C181.245 35.7254 180.579 36.9245 180.895 37.3042C183.922 40.9356 184.37 44.7705 181.944 49.6059C179.15 49.3656 176.069 49.1007 172.988 48.8357C174.918 48.074 176.848 47.3123 178.818 46.1862C179.51 44.6056 180.163 43.3893 180.973 41.8806C178.473 40.9242 176.31 40.0969 173.627 39.0705C174.909 36.9098 176.064 34.9631 177.59 32.9438Z" fill="#6DB97F"/>
<path d="M65.1021 22.4359C65.5541 21.4417 65.9416 20.895 66.6677 20.5473C67.2601 24.1711 67.5139 27.596 67.5541 31.3639C67.3069 37.1739 67.2733 42.641 67.2396 48.108C66.3553 49.2975 65.4709 50.487 64.2509 51.36C63.7632 50.4576 63.6111 49.8718 63.4589 49.286C64.2461 43.076 65.1981 36.8803 65.7406 30.649C65.9625 28.1002 65.2985 25.4742 65.1021 22.4359Z" fill="#4DAA62"/>
<path d="M80.4618 48.2148C81.0649 48.2587 81.3635 48.4527 81.8096 49.2842C81.9632 51.265 81.9692 52.6082 81.9752 53.9515C81.3702 54.2988 80.7652 54.6461 80.0297 55.3322C79.2204 55.8207 78.5416 55.9703 77.5563 55.9334C78.2189 53.2863 79.1881 50.8257 80.4618 48.2148Z" fill="#7BDB95"/>
<path d="M63.16 49.4966C63.6111 49.8718 63.7632 50.4576 63.944 51.4958C64.7223 53.1145 65.4721 54.2808 66.2234 55.9077C64.5614 55.6411 62.4887 55.2688 61.4143 54.0305C60.9081 53.4469 62.3189 51.2003 63.16 49.4966Z" fill="#419954"/>
<path d="M106.319 34.9052C105.794 34.8551 105.601 34.7487 105.176 34.1958C106.29 33.1698 107.636 32.5902 108.995 32.3015C109.033 32.9785 109.058 33.3645 109.084 33.7505C108.786 33.9712 108.488 34.1918 108.09 34.6741C107.543 34.9068 107.097 34.8779 106.319 34.9052Z" fill="#71D18A"/>
<path d="M93.1283 17.8699C91.8978 17.4083 90.8556 16.7557 89.6269 15.8453C89.5626 15.4536 89.6849 15.3196 90.297 15.0499C91.1865 14.9428 91.5863 14.9715 92.0867 15.2716C92.6893 16.1276 93.1912 16.7123 93.6931 17.297C93.5676 17.4243 93.4421 17.5516 93.1283 17.8699Z" fill="#459E58"/>
<path d="M172.658 48.8078C176.069 49.1007 179.15 49.3656 181.944 49.6059C184.37 44.7705 183.922 40.9356 180.895 37.3042C180.579 36.9245 181.245 35.7254 181.768 34.8615C186.596 35.1027 191.112 35.3888 196.768 35.7471C193.42 40.8103 190.9 44.6221 187.893 48.7714C186.941 49.7458 186.475 50.3826 186.009 51.0194C183.267 52.0125 180.526 53.0055 177.137 53.7478C174.653 53.6817 172.818 53.8662 170.982 54.0507C164.122 53.2933 158.787 49.8658 154.26 43.9954C153.661 42.2324 153.285 41.1039 152.914 39.6454C152.938 38.8759 152.959 38.4363 153.39 37.9979C156.63 36.9583 159.459 35.9174 162.288 34.8765C163.81 40.829 166.876 45.6661 172.658 48.8078Z" fill="#85E39F"/>
<path d="M162.232 34.4377C159.459 35.9174 156.629 36.9583 153.229 37.7378C152.424 37.1412 152.19 36.8059 151.957 36.4707C151.957 36.4707 152.012 36.4978 152.02 36.0876C152.76 27.4563 156.316 20.8206 163.428 15.9397C165.483 14.5007 167.191 13.1081 168.9 11.7155C169.706 11.449 170.511 11.1824 171.864 11.1685C173.618 11.2394 174.825 11.0577 176.033 10.876C179.692 10.9586 183.4 10.7153 186.989 11.2599C188.812 11.5365 191.588 12.9877 191.872 14.34C192.397 16.8485 191.41 19.674 191.053 22.3675C189.046 21.8323 186.461 21.8999 185.149 20.6406C182.12 17.733 179.141 15.7223 174.689 15.8463C167.062 16.0587 162.819 19.7498 162.177 27.5123C162 29.6598 162.167 31.8359 162.232 34.4377Z" fill="#91E5A9"/>
<path d="M163.081 15.9861C156.316 20.8206 152.76 27.4564 152.003 36.1134C151.556 34.3279 151.134 32.1064 151.031 29.2304C151.43 27.6215 151.51 26.6671 151.59 25.7127C154.734 22.0231 157.877 18.3336 161.618 14.7827C162.504 15.2762 162.793 15.6312 163.081 15.9861Z" fill="#D9F5E1"/>
<path d="M163.428 15.9397C162.793 15.6312 162.504 15.2762 161.965 14.6769C163.858 13.5539 166.001 12.6752 168.523 11.756C167.191 13.1081 165.483 14.5007 163.428 15.9397Z" fill="#99D9A9"/>
<path d="M171.252 54.2942C172.818 53.8662 174.653 53.6817 176.75 53.7575C175.181 54.1911 173.351 54.3644 171.252 54.2942Z" fill="#74D88E"/>
<path d="M175.787 10.6735C174.825 11.0577 173.618 11.2394 172.19 11.1572C173.16 10.7525 174.35 10.6118 175.787 10.6735Z" fill="#86D399"/>
<path d="M152.91 39.9754C153.285 41.1039 153.661 42.2324 154.058 43.7439C153.37 42.9894 152.659 41.8519 152.191 40.3433C152.432 39.9721 152.91 39.9754 152.91 39.9754Z" fill="#91E5A9"/>
<path d="M151.321 25.8361C151.51 26.6671 151.43 27.6215 151.047 28.7906C150.847 27.9901 150.949 26.9748 151.321 25.8361Z" fill="#99D9A9"/>
<path d="M186.324 50.9689C186.475 50.3826 186.941 49.7458 187.727 49.0651C187.578 49.6537 187.109 50.2861 186.324 50.9689Z" fill="#74D88E"/>
<path d="M152.913 39.6454C152.91 39.9754 152.432 39.9721 152.195 39.9983C151.872 39.1288 151.787 38.2332 151.829 36.9042C152.19 36.8059 152.424 37.1412 152.819 37.7366C152.959 38.4363 152.938 38.8759 152.913 39.6454Z" fill="#D9F5E1"/>
<path d="M211.137 24.0073C214.381 20.5082 217.624 17.009 220.954 13.1648C234.248 8.20809 245.581 13.4528 249.744 26.6689C246.346 31.0042 242.67 28.604 239.075 27.7038C237.909 26.3073 236.827 25.2362 235.518 23.9113C233.515 19.9286 231.587 16.7115 226.505 16.9926C222.308 17.2247 220.17 19.3419 218.591 23.0128C215.841 23.3525 213.489 23.6799 211.137 24.0073Z" fill="#94E5AA"/>
<path d="M209.967 44.8338C209.928 44.089 209.863 43.4088 210.164 42.4115C218.458 46.2387 218.458 46.2387 221.34 40.2226C224.747 48.2207 227.329 49.9795 235.729 49.8378C241.418 48.6099 241.623 44.2219 242.47 40.0646C246.898 42.5116 248.418 38.1988 251.107 36.9503C250.614 38.8797 250.591 41.1213 249.551 42.6875C243.099 52.4034 230.577 56.2526 219.796 51.7673C216.808 50.5241 214.211 48.34 211.097 46.1103C210.496 45.4335 210.233 45.2339 209.969 45.0343C209.969 45.0343 209.942 44.8984 209.967 44.8338Z" fill="#84E39F"/>
<path d="M251.1 36.5093C248.418 38.1988 246.898 42.5116 242.411 39.6689C241.01 36.0338 240.016 32.8429 239.052 29.3821C239.107 28.7512 239.133 28.3902 239.159 28.0293C242.67 28.604 246.346 31.0042 249.803 27.0346C250.467 30.0028 250.78 33.0356 251.1 36.5093Z" fill="#8CE6A5"/>
<path d="M210.081 45.2581C210.233 45.2339 210.496 45.4335 210.869 45.8597C210.717 45.8849 210.455 45.6834 210.081 45.2581Z" fill="#87E4A1"/>
<path d="M48.0153 30.9904C48.3093 31.1328 48.5556 31.3336 48.8746 31.8008C49.6264 33.1237 50.0898 34.3861 50.9169 35.3298C55.6512 40.7313 54.9535 45.1404 48.4879 48.1801C45.4167 49.624 42.046 50.4309 38.2686 51.2767C43.8467 45.4812 42.903 39.6418 39.4534 33.3239C41.1186 31.5737 42.681 30.2969 44.0413 28.8323C46.0957 26.6205 48.009 24.2778 50.0486 22.3244C50.1858 22.8736 50.2567 23.0891 50.3277 23.3046C49.5764 24.6398 48.8251 25.9749 47.6626 27.7121C47.5061 29.0729 47.7607 30.0316 48.0153 30.9904Z" fill="#8CE6A6"/>
<path d="M49.9823 21.9907C48.009 24.2778 46.0957 26.6205 44.0413 28.8324C42.681 30.2969 41.1186 31.5737 39.2863 33.0027C37.0197 32.1687 35.1134 31.2667 33.4281 30.0438C34.3481 29.69 35.047 29.657 36.0739 29.6888C36.9466 29.1829 37.4913 28.6123 38.0183 28.0216C38.0006 28.0015 38.0414 28.0356 38.3985 27.9525C41.5214 25.0128 42.1679 22.0314 39.2313 18.4965C38.6477 16.8685 38.1204 15.5861 37.9966 14.2156C39.6305 13.73 40.8608 13.3324 42.4622 12.9312C47.7333 13.9631 50.6055 16.5982 49.9823 21.9907Z" fill="#9FE9B4"/>
<path d="M16.8376 41.0795C16.7337 40.3979 16.7335 40.0074 17.0517 39.0649C17.5785 36.0091 17.7869 33.5051 18.3751 30.9908C21.8366 29.6531 24.9182 28.3258 28.1791 27.2216C28.8812 27.6453 29.4041 27.8459 30.1314 28.1816C30.5954 28.5239 30.8033 28.774 30.9594 29.0671C29.9723 31.7861 28.9852 34.5051 27.6467 37.6601C24.3566 40.6436 21.7556 44.082 17.0538 41.9783C17.0163 41.7757 16.9788 41.5732 16.8376 41.0795Z" fill="#8FE6A8"/>
<path d="M17.0342 42.4077C21.7556 44.082 24.3566 40.6436 27.6379 38.0437C27.9806 42.0708 27.9806 46.1503 27.9806 50.5766C24.4567 50.5766 20.4812 50.5766 16.3343 50.5766C16.5874 47.6973 16.801 45.2672 17.0342 42.4077Z" fill="#85E4A0"/>
<path d="M31.2328 29.058C30.8033 28.774 30.5954 28.5239 30.152 27.7334C29.7522 24.103 29.5363 21.056 29.3262 17.6736C29.3696 16.8927 29.4071 16.4471 29.651 15.8384C30.2376 15.0624 30.6179 14.4496 31.4189 13.7917C33.7574 13.9323 35.6752 14.118 37.593 14.3037C38.1204 15.5861 38.6477 16.8685 39.1473 18.9313C38.7601 22.4862 38.4008 25.2609 38.0414 28.0356C38.0414 28.0356 38.0006 28.0015 37.7185 28.0467C36.873 28.6026 36.3095 29.1133 35.746 29.624C35.047 29.657 34.3481 29.69 33.2975 29.7027C32.466 29.4712 31.9861 29.26 31.2328 29.058ZM36.9375 24.9666C36.9503 22.8296 37.4157 20.5491 36.8009 18.6112C36.4494 17.5033 34.3396 16.9533 33.0214 16.1521C32.457 19 31.159 21.9482 31.5305 24.6683C31.9173 27.5003 34.3574 27.9314 36.9375 24.9666Z" fill="#4CA760"/>
<path d="M29.4447 16.0016C29.4072 16.4471 29.3696 16.8927 28.9888 17.9211C28.4304 21.3355 28.2152 24.167 27.9999 26.9985C24.9182 28.3258 21.8366 29.6531 18.3688 30.5288C17.4047 26.0094 16.8268 21.9416 16.2488 17.8739C16.0365 16.9524 15.8242 16.0309 16.0541 14.6442C20.3649 14.1463 24.2335 14.1137 28.1316 14.3987C28.589 15.1447 29.0169 15.5731 29.4447 16.0016Z" fill="#9BE8B1"/>
<path d="M50.0486 22.3244C50.6055 16.5982 47.7333 13.9631 42.0325 12.8967C32.8684 12.5467 24.5059 12.1737 16.1394 12.0047C15.4208 11.9902 14.6748 13.3296 13.9416 14.0401C10.4542 11.9742 12.1804 10.2395 14.7343 10.2463C25.0032 10.2734 35.3364 10.1995 45.5151 11.3351C51.9186 12.0496 54.1145 18.0498 50.6309 23.1545C50.2568 23.0891 50.1859 22.8736 50.0486 22.3244Z" fill="#76CF8D"/>
<path d="M14.1957 14.129C14.6748 13.3296 15.4208 11.9902 16.1394 12.0047C24.5059 12.1737 32.8684 12.5467 41.6615 12.9003C40.8608 13.3324 39.6305 13.73 37.9966 14.2156C35.6752 14.118 33.7574 13.9323 31.2289 13.6014C29.7795 13.6645 28.9408 13.8728 28.1021 14.0811C24.2335 14.1137 20.3649 14.1463 15.9965 14.2937C15.1478 14.3449 14.7989 14.2814 14.1957 14.129Z" fill="#B8ECC6"/>
<path d="M16.1699 18.3476C16.8268 21.9416 17.4047 26.0094 17.989 30.5392C17.7869 33.5051 17.5785 36.0091 17.0447 38.7708C16.5098 32.2928 16.3004 25.5571 16.1699 18.3476Z" fill="#76CF8D"/>
<path d="M48.0216 30.6083C47.7607 30.0316 47.5061 29.0729 47.5534 28.0265C47.9128 28.7013 47.9704 29.4638 48.0216 30.6083Z" fill="#76CF8D"/>
<path d="M67.7677 31.0209C67.5139 27.596 67.2601 24.1711 66.8346 20.3542C65.979 18.6943 65.2952 17.4264 64.3271 15.6644C64.7167 13.9053 65.3904 12.6405 66.0642 11.3757C69.3936 11.2958 72.7229 11.2159 76.612 11.5006C78.3366 12.5578 79.5016 13.2504 80.5618 13.8806C80.3325 15.4447 80.1464 16.7147 79.9602 17.9847C79.3121 18.9581 77.9661 20.0735 78.1305 20.8816C79.111 25.6998 75.8143 28.5495 73.5919 31.9694C72.0437 34.3518 70.8576 36.9696 69.2493 39.2994C68.5818 36.418 68.1748 33.7194 67.7677 31.0209Z" fill="#A0E9B5"/>
<path d="M67.5541 31.3639C68.1748 33.7195 68.5818 36.418 68.9962 39.5567C68.6407 42.5982 68.2779 45.1996 67.5773 47.9545C67.2733 42.641 67.3069 37.174 67.5541 31.3639Z" fill="#73CC89"/>
<path d="M80.1994 17.9903C80.1463 16.7147 80.3325 15.4447 80.5617 13.8806C79.5016 13.2504 78.3366 12.5578 77.0637 11.5543C79.269 11.5774 81.5822 11.9114 85.3325 12.4528C83.2065 15.0261 82.225 16.214 81.0803 17.7014C80.9171 18.0009 80.4386 17.9959 80.1994 17.9903Z" fill="#8EDAA2"/>
<path d="M108.982 32.0107C107.636 32.5902 106.29 33.1698 104.874 34.0623C104.551 34.7058 104.298 35.0362 103.542 35.7932C102.69 38.7265 102.067 41.2308 102.044 43.7405C101.961 52.9235 102.036 52.9242 92.967 53.0352C92.6605 52.9489 92.4322 52.7654 92.4026 52.1546C92.7397 51.6614 92.9169 51.4631 93.0549 51.2297C93.5304 50.9138 94.0058 50.5979 95.0312 49.9882C95.9386 48.7216 96.2963 47.7488 96.6539 46.776C96.608 44.3886 96.5621 42.0012 96.9946 39.2182C97.9946 37.2221 98.5161 35.6217 99.3779 33.9414C102.331 30.002 105.804 28.3195 110.575 28.9337C114.091 29.3864 116.289 28.4383 113.908 24.2065C113.328 23.1749 113.902 21.4936 113.946 20.1111C117.429 23.0344 120.912 25.9577 124.775 29.3804C126.108 30.2583 127.062 30.6367 128.172 31.3008C129.663 31.4094 131.052 31.408 132.318 31.0112C133.93 30.506 135.441 29.6807 136.996 28.9935C137.046 29.4343 137.095 29.8751 136.824 30.8648C135.999 32.451 135.418 33.4587 135.004 34.5306C132.461 41.1043 130.416 42.0529 123.612 40.0766C121.748 39.5352 119.74 39.4885 117.798 39.2147C117.798 39.2147 117.938 39.2105 117.895 38.8363C114.895 36.3117 111.939 34.1612 108.982 32.0107Z" fill="#8EE5A6"/>
<path d="M137.054 28.5722C135.441 29.6807 133.93 30.506 132.318 31.0112C131.052 31.408 129.663 31.4094 128.495 31.2278C129.05 30.1634 129.439 29.4577 129.827 28.752C131.608 24.6843 131.994 20.6931 128.923 16.6039C127.841 15.313 127.011 14.296 125.603 12.57C127.501 11.9933 128.902 11.5675 130.953 11.3664C133.721 11.4315 135.84 11.2718 137.958 11.1121C138.4 11.1411 138.841 11.1701 139.611 11.6002C139.631 13.3454 139.323 14.6894 139.015 16.0335C138.632 16.7771 138.25 17.5208 137.542 18.4565C135.356 19.0771 135.356 19.0771 137.129 23.0504C137.124 24.7506 137.118 26.4508 137.054 28.5722Z" fill="#9EE3B0"/>
<path d="M117.822 39.5215C119.74 39.4885 121.748 39.5352 123.612 40.0766C130.416 42.0529 132.461 41.1043 135.004 34.5306C135.418 33.4587 135.999 32.451 136.786 31.1964C137.116 32.6909 137.164 34.4027 136.905 36.8134C136.394 40.3391 136.191 43.1659 135.618 46.0509C132.79 46.7754 130.331 47.4417 127.872 48.1081C127.872 48.1081 127.97 48.0096 127.927 47.7083C125.225 45.6184 122.567 43.8299 119.909 42.0413C119.221 41.3036 118.533 40.566 117.822 39.5215Z" fill="#87E09F"/>
<path d="M127.915 48.4306C130.331 47.4417 132.79 46.7754 135.655 46.3449C136.376 47.054 136.692 47.5272 137.007 48.0004C136.974 48.7355 136.94 49.4706 136.502 50.6469C134.419 51.3796 132.739 51.6711 131.06 51.9626C130.026 50.8928 128.992 49.823 127.915 48.4306Z" fill="#7FDF9A"/>
<path d="M108.995 32.3015C111.939 34.1611 114.895 36.3116 117.827 38.8247C115.11 37.4645 112.418 35.7418 109.405 33.8848C109.058 33.3645 109.033 32.9785 108.995 32.3015Z" fill="#87E09F"/>
<path d="M137.266 47.6935C136.692 47.5272 136.376 47.054 136.024 46.2867C136.191 43.1659 136.394 40.3391 136.912 37.2403C137.327 40.441 137.426 43.9137 137.266 47.6935Z" fill="#70CB87"/>
<path d="M120.071 42.3399C122.567 43.8299 125.225 45.6184 127.891 47.7681C125.344 46.299 122.789 44.4687 120.071 42.3399Z" fill="#7FDF9A"/>
<path d="M137.717 10.8213C135.84 11.2718 133.721 11.4315 131.325 11.3532C133.189 10.9203 135.332 10.7254 137.717 10.8213Z" fill="#87E09F"/>
<path d="M139.347 15.9825C139.323 14.6894 139.631 13.3454 139.938 11.6602C140.813 11.8427 141.689 12.3665 142.566 12.8902C141.604 13.904 140.641 14.9177 139.347 15.9825Z" fill="#87E09F"/>
<path d="M131.212 52.2829C132.739 51.6711 134.419 51.3796 136.45 51.0115C136.087 55.067 134.003 54.7375 131.212 52.2829Z" fill="#70CB87"/>
<path d="M137.352 22.7662C135.356 19.0771 135.356 19.0771 137.443 18.756C137.637 20.0696 137.606 21.2758 137.352 22.7662Z" fill="#8EE5A6"/>
<path d="M65.7205 11.2968C65.3904 12.6405 64.7167 13.9054 64.0466 15.4953C61.221 13.278 61.3136 12.9566 65.7205 11.2968Z" fill="#8EDAA2"/>
<path d="M82.3169 53.9016C81.9692 52.6082 81.9633 51.265 81.9416 49.522C84.0293 50.4107 85.2055 51.8429 82.3169 53.9016Z" fill="#6AC881"/>
<path d="M99.0376 34.0213C98.5161 35.6217 97.9945 37.2221 97.1722 38.8471C96.2694 32.4552 95.6855 26.0368 95.0363 19.6251C94.9751 19.02 94.5037 18.4564 93.9579 17.5853C93.1912 16.7123 92.6892 16.1276 92.3463 15.0654C92.722 13.5218 92.9387 12.4556 93.1554 11.3895C93.8736 11.3231 94.5919 11.2567 95.949 11.4038C98.0524 11.7596 99.5169 11.9018 100.981 12.2821C100.98 12.5201 100.985 12.996 100.619 13.048C96.3106 13.95 94.6452 15.7144 97.6074 19.4674C98.197 20.2143 98.5461 21.1511 99.0077 22.4611C99.0187 26.6216 99.0282 30.3214 99.0376 34.0213Z" fill="#AAE6BA"/>
<path d="M93.1559 53.3428C102.036 52.9242 101.961 52.9235 102.044 43.7404C102.067 41.2308 102.69 38.7265 103.384 36.0593C103.803 38.3871 103.659 40.9058 104.003 43.3557C104.421 46.3236 105.252 49.2333 106.045 52.8C103.079 56.6824 99.4979 57.1169 93.1559 53.3428Z" fill="#71D18A"/>
<path d="M96.3632 46.918C96.2962 47.7488 95.9386 48.7216 95.2731 49.8344C95.3343 49.003 95.7035 48.0315 96.3632 46.918Z" fill="#6BC481"/>
<path d="M92.8306 51.2586C92.9169 51.4631 92.7397 51.6614 92.3563 51.9348C92.1745 51.7077 92.3135 51.4552 92.8306 51.2586Z" fill="#71D18A"/>
<path d="M210.932 24.3201C213.489 23.6799 215.841 23.3525 218.607 23.4668C219.036 26.9427 219.05 29.9769 218.697 33.0606C215.602 36.2721 211.94 36.21 208.246 36.038C209.074 32.2363 209.901 28.4346 210.932 24.3201Z" fill="#91E7A9"/>
<path d="M208.234 36.3935C211.94 36.21 215.602 36.2721 218.849 33.3878C219.948 35.7706 220.525 37.8758 221.102 39.981C218.458 46.2387 218.458 46.2387 210.155 42.0659C209.261 40.2746 208.741 38.5118 208.234 36.3935Z" fill="#87E4A1"/>
<path d="M99.3779 33.9414C99.0282 30.3214 99.0187 26.6216 99.311 22.297C102.909 19.2292 104.479 16.5133 100.985 12.996C100.985 12.996 100.98 12.5201 101.188 12.1568C101.663 11.6005 101.862 11.3523 101.993 11.0491C103.21 11.5074 104.427 11.9658 105.884 13.0387C107.035 14.1274 107.948 14.6015 108.86 15.0756C110.465 16.5534 112.069 18.0313 113.81 19.8101C113.902 21.4936 113.328 23.1749 113.908 24.2065C116.289 28.4383 114.091 29.3864 110.574 28.9337C105.804 28.3195 102.331 30.002 99.3779 33.9414Z" fill="#99E8B0"/>
<path d="M101.754 10.7671C101.863 11.3523 101.663 11.6005 101.188 11.9188C99.5169 11.9018 98.0524 11.7596 96.3099 11.3856C97.8595 10.9309 99.6869 10.708 101.754 10.7671Z" fill="#84D599"/>
<path d="M92.8085 11.3172C92.9387 12.4556 92.722 13.5218 92.2457 14.7941C91.5863 14.9715 91.1865 14.9428 90.4916 14.8597C90.9515 13.6185 91.7066 12.4318 92.8085 11.3172Z" fill="#84D599"/>
<path d="M129.426 28.8204C129.439 29.4577 129.05 30.1634 128.339 30.9422C127.062 30.6367 126.108 30.2583 125.058 29.573C126.316 29.1404 127.671 29.0146 129.426 28.8204Z" fill="#84D599"/>
<path d="M108.761 14.7717C107.948 14.6015 107.035 14.1274 106.063 13.3239C106.889 13.4856 107.776 13.9767 108.761 14.7717Z" fill="#84D599"/>
<path d="M221.34 40.2226C220.525 37.8758 219.948 35.7706 219.218 33.3382C219.05 29.9769 219.036 26.9427 219.005 23.4545C220.17 19.3419 222.308 17.2247 226.505 16.9926C231.587 16.7115 233.515 19.9286 235.582 24.3103C236.194 27.6639 236.515 30.3647 236.518 32.8813C234.468 28.908 233.136 24.8411 230.799 21.4719C229.915 20.1985 226.527 19.8666 224.627 20.3813C223.406 20.7117 222.008 23.418 222.098 24.9775C222.359 29.4708 222.546 34.2458 224.213 38.3154C226.765 44.5436 228.713 46.8451 235.085 46.3424C235.271 47.7768 235.338 48.8296 235.406 49.8823C227.329 49.9795 224.747 48.2207 221.34 40.2226Z" fill="#61B976"/>
<path d="M236.837 33.0655C236.515 30.3647 236.194 27.6639 235.808 24.5641C236.827 25.2362 237.909 26.3073 239.075 27.7038C239.133 28.3902 239.107 28.7512 239.043 29.8358C239.252 32.3341 239.937 34.1898 239.628 35.861C239.293 37.6688 238.028 39.3042 237.091 40.5799C236.954 37.7852 236.896 35.4254 236.837 33.0655Z" fill="#B6E0C0"/>
<path d="M237.169 41.0149C238.028 39.3042 239.293 37.6688 239.628 35.861C239.937 34.1898 239.252 32.3341 239.013 30.1058C240.016 32.8429 241.01 36.0338 242.063 39.6203C241.623 44.2219 241.418 48.6099 235.729 49.8378C235.338 48.8296 235.271 47.7768 235.23 46.0205C235.895 43.8829 236.532 42.4489 237.169 41.0149Z" fill="#D7F1DD"/>
<path d="M38.3985 27.9525C38.4008 25.2609 38.7601 22.4862 39.2035 19.2768C42.168 22.0314 41.5214 25.0128 38.3985 27.9525Z" fill="#76CF8D"/>
<path d="M36.0739 29.6888C36.3095 29.1133 36.873 28.6026 37.7363 28.0668C37.4913 28.6123 36.9466 29.1829 36.0739 29.6888Z" fill="#76CF8D"/>
<path d="M28.1791 27.2216C28.2152 24.167 28.4304 21.3355 28.983 18.2564C29.5363 21.056 29.7522 24.103 29.9476 27.5982C29.4041 27.8459 28.8812 27.6453 28.1791 27.2216Z" fill="#76CF8D"/>
<path d="M28.1316 14.3987C28.9408 13.8728 29.7796 13.6645 30.8082 13.6465C30.6179 14.4496 30.2377 15.0624 29.6511 15.8384C29.0169 15.5731 28.589 15.1447 28.1316 14.3987Z" fill="#76CF8D"/>
<path d="M100.619 13.048C104.479 16.5133 102.909 19.2292 99.3094 21.8363C98.5461 21.1511 98.197 20.2143 97.6074 19.4674C94.6452 15.7144 96.3106 13.95 100.619 13.048Z" fill="#A1E7B4"/>
</g>
<defs>
<clipPath id="clip0_1_2">
<rect width="262" height="64" fill="white"/>
</clipPath>
</defs>
</svg>
